# xmcd CD database file
#
# Track frame offsets:
#	150
#	26694
#	54295
#	87136
#	117124
#	147661
#	176855
#	199241
#
# Disc length: 3046 seconds
#
# Revision: 1
# Processed by: cddbd v1.5.1PL2 Copyright (c) Steve Scherf et al.
# Submitted via: CDex 1.51
#
DISCID=6e0be408
DTITLE=Bruce Forman - Dedication - Bootleg Vol. 1
DYEAR=1999
DGENRE=Jazz
TTITLE0=Dedication
TTITLE1=Easy to Remember
TTITLE2=Caribe
TTITLE3=Mobile One
TTITLE4=Sweet and Lovely
TTITLE5=Visitation
TTITLE6=Carousel
TTITLE7=Cheryl
EXTD=YEAR: 1999
EXTT0=
EXTT1=
EXTT2=
EXTT3=
EXTT4=
EXTT5=
EXTT6=
EXTT7=
PLAYORDER=
